<svg xmlns="http://www.w3.org/2000/svg" version="1.0" width="226.000000" height="226.000000" preserveAspectRatio="xMidYMid meet" style=""><rect id="backgroundrect" width="100%" height="100%" x="0" y="0" fill="none" stroke="none"/>
<metadata>
Created by potrace 1.15, written by Peter Selinger 2001-2017
</metadata>

<g class="currentLayer" style=""><title>Layer 1</title><g transform="translate(0,226) scale(0.10000000149011612,-0.10000000149011612) " fill="#ad8b2f" stroke="none" id="svg_1" class="selected" fill-opacity="1">
<path d="M320 1559 l0 -504 398 -247 c219 -136 405 -250 413 -253 16 -6 183 94 182 109 -1 5 -176 118 -390 251 l-388 242 -3 271 c-1 150 0 272 4 272 3 0 244 -149 536 -331 292 -182 537 -333 544 -336 11 -4 14 17 14 109 l0 115 -150 93 c-133 82 -149 94 -133 105 40 28 393 245 398 245 3 0 5 -170 5 -377 l1 -378 67 -42 c37 -22 84 -51 105 -63 l37 -22 0 622 c0 520 -2 621 -14 617 -7 -3 -192 -116 -411 -251 l-398 -246 -31 18 c-17 10 -195 121 -395 246 -200 125 -370 230 -377 233 -12 4 -14 -75 -14 -498z" id="svg_2" fill="#ad8b2f" fill-opacity="1"/>
<path d="M650 1348 l0 -113 460 -285 c253 -157 460 -288 460 -291 0 -8 -418 -269 -430 -269 -6 0 -190 113 -410 250 -221 138 -403 250 -406 250 -2 0 -3 -52 -2 -116 l3 -117 407 -254 408 -254 307 192 c519 323 504 312 490 325 -19 18 -1268 794 -1278 794 -5 0 -9 -51 -9 -112z" id="svg_3" fill="#ad8b2f" fill-opacity="1"/>
</g></g></svg>